<svg width="24" height="24" viewBox="0 0 24 24" fill="none" xmlns="http://www.w3.org/2000/svg">
<g id="Frame">
<path id="Vector" fill-rule="evenodd" clip-rule="evenodd" d="M12.4167 3.78624C13.7046 2.14336 15.4947 2.13525 15.4947 2.13525C15.4947 2.13525 15.761 3.67996 14.4818 5.16825C13.1157 6.75722 11.5632 6.49727 11.5632 6.49727C11.5632 6.49727 11.2719 5.24773 12.4167 3.78656V3.78624Z" fill="white"/>
<path id="Vector_2" fill-rule="evenodd" clip-rule="evenodd" d="M11.7257 7.57993C12.3883 7.57993 13.6175 6.69849 15.218 6.69849C17.9727 6.69849 19.0564 8.59602 19.0564 8.59602C19.0564 8.59602 16.937 9.64515 16.937 12.1907C16.937 15.0622 19.5774 16.0518 19.5774 16.0518C19.5774 16.0518 17.7316 21.0811 15.2386 21.0811C14.0934 21.0811 13.2035 20.334 11.9968 20.334C10.7901 20.334 9.54729 21.1089 8.75268 21.1089C6.47609 21.1092 3.6 16.3386 3.6 12.5036C3.6 8.66864 6.03436 6.75116 8.31771 6.75116C9.80196 6.75116 10.9539 7.57993 11.7257 7.57993Z" fill="white"/>
</g>
</svg>
