<svg width="26" height="26" viewBox="0 0 26 26" fill="none" xmlns="http://www.w3.org/2000/svg">
<path fill-rule="evenodd" clip-rule="evenodd" d="M10.6197 5.33496C10.2437 5.33496 9.89465 5.52991 9.69742 5.85002L8.64433 7.55919C8.62286 7.59404 8.60363 7.62938 8.58658 7.66508H4.33333C3.73502 7.66508 3.25 8.1501 3.25 8.74841V19.5817C3.25 20.1801 3.73503 20.6651 4.33333 20.6651H21.6667C22.265 20.6651 22.75 20.1801 22.75 19.5817V8.74841C22.75 8.1501 22.265 7.66508 21.6667 7.66508H17.4131C17.396 7.62938 17.3768 7.59404 17.3553 7.55919L16.3022 5.85002C16.105 5.52991 15.7559 5.33496 15.3799 5.33496H10.6197ZM16.487 14.1651C16.487 16.0907 14.9259 17.6518 13.0003 17.6518C11.0746 17.6518 9.51355 16.0907 9.51355 14.1651C9.51355 12.2394 11.0746 10.6783 13.0003 10.6783C14.9259 10.6783 16.487 12.2394 16.487 14.1651ZM19.1199 12.0395C19.7429 12.0395 20.2479 11.5344 20.2479 10.9114C20.2479 10.2884 19.7429 9.78332 19.1199 9.78332C18.4968 9.78332 17.9918 10.2884 17.9918 10.9114C17.9918 11.5344 18.4968 12.0395 19.1199 12.0395Z" fill="currentColor"/>
</svg>
