<svg width="24" height="24" viewBox="0 0 24 24" fill="none" xmlns="http://www.w3.org/2000/svg">
<g id="ic_AR">
<path id="Exclude" fill-rule="evenodd" clip-rule="evenodd" d="M9.80283 4.92462C9.45577 4.92462 9.13352 5.10458 8.95146 5.40006L7.97938 6.97776C7.95959 7.00988 7.94187 7.04245 7.92614 7.07535H4C3.44772 7.07535 3 7.52306 3 8.07535V18.0753C3 18.6276 3.44772 19.0753 4 19.0753H20C20.5523 19.0753 21 18.6276 21 18.0753V8.07535C21 7.52306 20.5523 7.07535 20 7.07535H16.0736C16.0578 7.04245 16.0401 7.00988 16.0203 6.97776L15.0482 5.40006C14.8662 5.10458 14.5439 4.92462 14.1969 4.92462H9.80283ZM15.2188 13.0753C15.2188 14.8529 13.7778 16.2939 12.0002 16.2939C10.2227 16.2939 8.78174 14.8529 8.78174 13.0753C8.78174 11.2978 10.2227 9.85684 12.0002 9.85684C13.7778 9.85684 15.2188 11.2978 15.2188 13.0753ZM17.6491 11.1134C18.2242 11.1134 18.6904 10.6471 18.6904 10.072C18.6904 9.49695 18.2242 9.03074 17.6491 9.03074C17.074 9.03074 16.6078 9.49695 16.6078 10.072C16.6078 10.6471 17.074 11.1134 17.6491 11.1134Z" fill="currentColor"/>
</g>
</svg>
