<svg width="20" height="20" viewBox="0 0 20 20" fill="none" xmlns="http://www.w3.org/2000/svg">
<g id="ic_error" clip-path="url(#clip0_113_1111)">
<path id="Vector" d="M9.99956 19.4033C15.1347 19.4033 19.4028 15.1442 19.4028 10C19.4028 4.86491 15.1252 0.596741 9.99012 0.596741C4.84636 0.596741 0.59668 4.86491 0.59668 10C0.59668 15.1442 4.85541 19.4033 9.99956 19.4033ZM9.99091 11.383C9.50198 11.383 9.2349 11.097 9.21602 10.6081L9.087 6.05478C9.06852 5.54736 9.45557 5.18824 9.98107 5.18824C10.4975 5.18824 10.8936 5.5568 10.8755 6.06382L10.7461 10.6089C10.7276 11.1065 10.4515 11.383 9.99091 11.383ZM9.99051 14.776C9.45557 14.776 8.95759 14.352 8.95759 13.78C8.95759 13.2081 9.44652 12.7849 9.99051 12.7849C10.5251 12.7849 11.0226 13.1995 11.0226 13.78C11.0226 14.361 10.5156 14.776 9.99051 14.776Z" fill="currentColor"/>
</g>
<defs>
<clipPath id="clip0_113_1111">
<rect width="20" height="20" fill="white"/>
</clipPath>
</defs>
</svg>
