<svg width="21" height="21" viewBox="0 0 21 21" fill="none" xmlns="http://www.w3.org/2000/svg">
<g id="ic_error">
<path id="Vector" d="M10.4996 19.9032C15.6347 19.9032 19.9028 15.6441 19.9028 10.5C19.9028 5.36485 15.6252 1.09668 10.4901 1.09668C5.34636 1.09668 1.09668 5.36485 1.09668 10.5C1.09668 15.6441 5.35541 19.9032 10.4996 19.9032ZM10.4909 11.8829C10.002 11.8829 9.7349 11.597 9.71602 11.1081L9.587 6.55472C9.56852 6.0473 9.95557 5.68818 10.4811 5.68818C10.9975 5.68818 11.3936 6.05674 11.3755 6.56376L11.2461 11.1088C11.2276 11.6064 10.9515 11.8829 10.4909 11.8829ZM10.4905 15.2759C9.95557 15.2759 9.45759 14.8519 9.45759 14.28C9.45759 13.7081 9.94652 13.2848 10.4905 13.2848C11.0251 13.2848 11.5226 13.6994 11.5226 14.28C11.5226 14.861 11.0156 15.2759 10.4905 15.2759Z" fill="#575757"/>
</g>
</svg>
