<svg width="24" height="24" viewBox="0 0 24 24" fill="none" xmlns="http://www.w3.org/2000/svg">
<g id="ic_filter">
<path id="Vector" d="M15 7.00245C14.7348 7.00245 14.4804 7.10781 14.2929 7.29534C14.1054 7.48288 14 7.73723 14 8.00245C14 8.26767 14.1054 8.52202 14.2929 8.70956C14.4804 8.89709 14.7348 9.00245 15 9.00245C15.2652 9.00245 15.5196 8.89709 15.7071 8.70956C15.8946 8.52202 16 8.26767 16 8.00245C16 7.73723 15.8946 7.48288 15.7071 7.29534C15.5196 7.10781 15.2652 7.00245 15 7.00245ZM12.17 7.00245C12.3766 6.41692 12.7597 5.90988 13.2666 5.55124C13.7735 5.1926 14.3791 5 15 5C15.6209 5 16.2265 5.1926 16.7334 5.55124C17.2403 5.90988 17.6234 6.41692 17.83 7.00245H19C19.2652 7.00245 19.5196 7.10781 19.7071 7.29534C19.8946 7.48288 20 7.73723 20 8.00245C20 8.26767 19.8946 8.52202 19.7071 8.70956C19.5196 8.89709 19.2652 9.00245 19 9.00245H17.83C17.6234 9.58798 17.2403 10.095 16.7334 10.4537C16.2265 10.8123 15.6209 11.0049 15 11.0049C14.3791 11.0049 13.7735 10.8123 13.2666 10.4537C12.7597 10.095 12.3766 9.58798 12.17 9.00245H5C4.73478 9.00245 4.48043 8.89709 4.29289 8.70956C4.10536 8.52202 4 8.26767 4 8.00245C4 7.73723 4.10536 7.48288 4.29289 7.29534C4.48043 7.10781 4.73478 7.00245 5 7.00245H12.17ZM9 15.0025C8.73478 15.0025 8.48043 15.1078 8.29289 15.2953C8.10536 15.4829 8 15.7372 8 16.0025C8 16.2677 8.10536 16.522 8.29289 16.7096C8.48043 16.8971 8.73478 17.0025 9 17.0025C9.26522 17.0025 9.51957 16.8971 9.70711 16.7096C9.89464 16.522 10 16.2677 10 16.0025C10 15.7372 9.89464 15.4829 9.70711 15.2953C9.51957 15.1078 9.26522 15.0025 9 15.0025ZM6.17 15.0025C6.3766 14.4169 6.75974 13.9099 7.2666 13.5512C7.77346 13.1926 8.37909 13 9 13C9.62091 13 10.2265 13.1926 10.7334 13.5512C11.2403 13.9099 11.6234 14.4169 11.83 15.0025H19C19.2652 15.0025 19.5196 15.1078 19.7071 15.2953C19.8946 15.4829 20 15.7372 20 16.0025C20 16.2677 19.8946 16.522 19.7071 16.7096C19.5196 16.8971 19.2652 17.0025 19 17.0025H11.83C11.6234 17.588 11.2403 18.095 10.7334 18.4537C10.2265 18.8123 9.62091 19.0049 9 19.0049C8.37909 19.0049 7.77346 18.8123 7.2666 18.4537C6.75974 18.095 6.3766 17.588 6.17 17.0025H5C4.73478 17.0025 4.48043 16.8971 4.29289 16.7096C4.10536 16.522 4 16.2677 4 16.0025C4 15.7372 4.10536 15.4829 4.29289 15.2953C4.48043 15.1078 4.73478 15.0025 5 15.0025H6.17Z" fill="#424242"/>
</g>
</svg>
