<svg width="43" height="42" viewBox="0 0 43 42" fill="none" xmlns="http://www.w3.org/2000/svg">
<path d="M24.3662 6.92486C24.0814 6.41549 23.6658 5.9913 23.1624 5.69604C22.659 5.40077 22.086 5.24512 21.5024 5.24512C20.9188 5.24512 20.3457 5.40077 19.8423 5.69604C19.3389 5.9913 18.9233 6.41549 18.6385 6.92486L6.16186 29.2426C5.88277 29.7418 5.739 30.3053 5.7448 30.8771C5.7506 31.449 5.90577 32.0094 6.19492 32.5029C6.48408 32.9963 6.89718 33.4056 7.39327 33.6901C7.88936 33.9747 8.45121 34.1246 9.02311 34.1251H33.9711C34.5432 34.1251 35.1054 33.9755 35.6019 33.6911C36.0983 33.4067 36.5118 32.9975 36.8013 32.504C37.0907 32.0105 37.2461 31.4499 37.252 30.8778C37.258 30.3057 37.1142 29.742 36.835 29.2426L24.3662 6.92486ZM23.4685 26.9064C23.4685 27.4285 23.2611 27.9293 22.8919 28.2985C22.5226 28.6677 22.0219 28.8751 21.4997 28.8751C20.9776 28.8751 20.4768 28.6677 20.1076 28.2985C19.7384 27.9293 19.531 27.4285 19.531 26.9064C19.531 26.3842 19.7384 25.8835 20.1076 25.5142C20.4768 25.145 20.9776 24.9376 21.4997 24.9376C22.0219 24.9376 22.5226 25.145 22.8919 25.5142C23.2611 25.8835 23.4685 26.3842 23.4685 26.9064ZM20.1872 21.0001V14.4376C20.1872 14.0895 20.3255 13.7557 20.5717 13.5095C20.8178 13.2634 21.1516 13.1251 21.4997 13.1251C21.8478 13.1251 22.1817 13.2634 22.4278 13.5095C22.674 13.7557 22.8122 14.0895 22.8122 14.4376V21.0001C22.8122 21.3482 22.674 21.682 22.4278 21.9282C22.1817 22.1743 21.8478 22.3126 21.4997 22.3126C21.1516 22.3126 20.8178 22.1743 20.5717 21.9282C20.3255 21.682 20.1872 21.3482 20.1872 21.0001Z" fill="#C5C5C5"/>
</svg>
