<svg xmlns="http://www.w3.org/2000/svg" width="172" height="56" viewBox="0 0 172 56" fill="none">
  <path d="M1.00401 40.9889C1.00401 30.3334 2.63733 28.7778 6.05953 28.7778C9.48173 28.7778 13.4484 36.5556 15.5484 39.3555C15.6261 36.4778 15.7039 28.7778 19.7483 28.7778C23.7927 28.7778 24.1816 30.7223 24.1816 40.9889C24.1816 51.2555 23.2483 53.1999 19.3594 53.1999C15.4706 53.1999 10.9595 46.1222 8.78173 43.1666C8.78173 47.5222 8.93729 53.1999 5.35953 53.1999C0.0706793 53.1999 1.00401 49.6999 1.00401 40.9889Z" fill="#CD19FF"/>
  <path d="M146.992 40.9889C146.992 30.3334 148.625 28.7778 152.047 28.7778C155.47 28.7778 159.436 36.5556 161.536 39.3555C161.614 36.4778 161.692 28.7778 165.736 28.7778C169.781 28.7778 170.17 30.7223 170.17 40.9889C170.17 51.2555 169.236 53.1999 165.347 53.1999C161.459 53.1999 156.947 46.1222 154.77 43.1666C154.77 47.5222 154.925 53.1999 151.347 53.1999C145.981 53.1999 146.992 49.6999 146.992 40.9889Z" fill="#CD19FF"/>
  <path d="M25.9705 49.4666C25.9705 44.9555 32.7371 33.3667 35.6149 30.4112C36.7816 29.2445 38.026 28.7778 39.3482 28.7778C40.6704 28.7778 41.8371 29.1667 42.926 30.0223C46.3482 32.7445 50.7037 43.5555 50.7037 48.2222C50.7037 52.8888 50.0815 53.1999 47.1259 53.1999C44.1704 53.1999 43.9371 51.2555 42.6926 49.2333C41.9926 48.1444 41.526 47.7555 37.8704 47.7555C34.2149 47.7555 34.526 49.311 33.3594 51.0221C32.426 52.3443 31.8038 53.2777 29.5483 53.2777C27.2927 53.2777 25.9705 51.5666 25.9705 49.5444V49.4666ZM43.7037 40.7555C43.7037 39.5111 42.7704 38.2667 41.526 38.2667C40.2815 38.2667 39.3482 39.5111 39.3482 40.7555C39.3482 42 40.4371 42.5444 41.526 42.5444C42.6149 42.5444 43.7037 42 43.7037 40.7555Z" fill="#CD19FF"/>
  <path d="M144.659 49.4666C144.659 44.9555 137.892 33.3667 135.014 30.4112C133.848 29.2445 132.603 28.7778 131.281 28.7778C129.959 28.7778 128.792 29.1667 127.703 30.0223C124.281 32.7445 119.925 43.5555 119.925 48.2222C119.925 52.8888 120.548 53.1999 123.503 53.1999C126.459 53.1999 126.692 51.2555 127.937 49.2333C128.637 48.1444 129.103 47.7555 132.759 47.7555C136.414 47.7555 136.103 49.311 137.27 51.0221C138.203 52.3443 138.825 53.2777 141.081 53.2777C143.336 53.2777 144.659 51.5666 144.659 49.5444V49.4666ZM126.848 40.7555C126.848 39.5111 127.781 38.2667 129.025 38.2667C130.27 38.2667 131.203 39.5111 131.203 40.7555C131.203 42 130.114 42.5444 129.025 42.5444C127.937 42.5444 126.848 42 126.848 40.7555Z" fill="#CD19FF"/>
  <path d="M57.937 48.8444C60.8147 48.6111 63.7703 48.3 68.6702 45.3444C75.5924 41.2222 71.0813 23.8001 65.3258 23.8779C60.737 23.8779 54.5926 50.5555 79.5591 46.4333C95.8923 43.7111 91.459 7.00024 85.5479 7.00024C79.6368 7.00024 77.2257 44.2556 90.6034 46.7444C113.937 51.1 113.314 25.2779 106.859 23.0224C99.8589 20.689 92.0812 52.2666 112.381 49.3889" stroke="#CD19FF" stroke-width="6.22218" stroke-miterlimit="10" stroke-linecap="round"/>
  <path d="M63.3814 17.9668C65.0996 17.9668 66.4925 16.5739 66.4925 14.8557C66.4925 13.1375 65.0996 11.7446 63.3814 11.7446C61.6632 11.7446 60.2703 13.1375 60.2703 14.8557C60.2703 16.5739 61.6632 17.9668 63.3814 17.9668Z" fill="#CD19FF"/>
  <path d="M107.792 17.9668C109.51 17.9668 110.903 16.5739 110.903 14.8557C110.903 13.1375 109.51 11.7446 107.792 11.7446C106.074 11.7446 104.681 13.1375 104.681 14.8557C104.681 16.5739 106.074 17.9668 107.792 17.9668Z" fill="#CD19FF"/>
</svg>