<svg xmlns="http://www.w3.org/2000/svg" width="78" height="25" viewBox="0 0 78 25" fill="none">
  <path d="M0.354637 18.2639C0.354637 13.507 1.09918 12.8125 2.65918 12.8125C4.21918 12.8125 6.02736 16.2847 6.98464 17.5347C7.02009 16.25 7.05555 12.8125 8.89918 12.8125C10.7428 12.8125 10.9201 13.6806 10.9201 18.2639C10.9201 22.8472 10.4946 23.7153 8.72191 23.7153C6.94918 23.7153 4.89282 20.5556 3.90009 19.2361C3.90009 21.1806 3.971 23.7153 2.34009 23.7153C-0.0708174 23.7153 0.354637 22.1528 0.354637 18.2639Z" fill="black"/>
  <path d="M66.9028 18.2639C66.9028 13.5069 67.6473 12.8125 69.2073 12.8125C70.7673 12.8125 72.5755 16.2847 73.5328 17.5347C73.5682 16.25 73.6037 12.8125 75.4473 12.8125C77.291 12.8125 77.4682 13.6806 77.4682 18.2639C77.4682 22.8472 77.0428 23.7153 75.2701 23.7153C73.4973 23.7153 71.441 20.5556 70.4482 19.2361C70.4482 21.1806 70.5192 23.7153 68.8882 23.7153C66.4419 23.7153 66.9028 22.1528 66.9028 18.2639Z" fill="black"/>
  <path d="M11.7355 22.0486C11.7355 20.0347 14.8201 14.8611 16.1319 13.5417C16.6637 13.0208 17.231 12.8125 17.8337 12.8125C18.4364 12.8125 18.9682 12.9861 19.4646 13.3681C21.0246 14.5833 23.0101 19.4097 23.0101 21.4931C23.0101 23.5764 22.7264 23.7153 21.3791 23.7153C20.0319 23.7153 19.9255 22.8472 19.3582 21.9444C19.0391 21.4583 18.8264 21.2847 17.1601 21.2847C15.4937 21.2847 15.6355 21.9792 15.1037 22.7431C14.6782 23.3333 14.3946 23.75 13.3664 23.75C12.3382 23.75 11.7355 22.9861 11.7355 22.0833V22.0486ZM19.8191 18.1597C19.8191 17.6042 19.3937 17.0486 18.8264 17.0486C18.2591 17.0486 17.8337 17.6042 17.8337 18.1597C17.8337 18.7153 18.3301 18.9583 18.8264 18.9583C19.3228 18.9583 19.8191 18.7153 19.8191 18.1597Z" fill="black"/>
  <path d="M65.8391 22.0486C65.8391 20.0347 62.7546 14.8611 61.4428 13.5417C60.911 13.0208 60.3437 12.8125 59.741 12.8125C59.1382 12.8125 58.6064 12.9861 58.1101 13.3681C56.5501 14.5833 54.5646 19.4097 54.5646 21.4931C54.5646 23.5764 54.8482 23.7153 56.1955 23.7153C57.5428 23.7153 57.6491 22.8472 58.2164 21.9444C58.5355 21.4583 58.7482 21.2847 60.4146 21.2847C62.081 21.2847 61.9391 21.9792 62.471 22.7431C62.8964 23.3333 63.1801 23.75 64.2082 23.75C65.2364 23.75 65.8391 22.9861 65.8391 22.0833V22.0486ZM57.7201 18.1597C57.7201 17.6042 58.1455 17.0486 58.7128 17.0486C59.2801 17.0486 59.7055 17.6042 59.7055 18.1597C59.7055 18.7153 59.2091 18.9583 58.7128 18.9583C58.2164 18.9583 57.7201 18.7153 57.7201 18.1597Z" fill="black"/>
  <path d="M26.3073 21.7708C27.6192 21.6667 28.9664 21.5278 31.2001 20.2083C34.3555 18.3681 32.2992 10.5903 29.6755 10.625C27.5837 10.625 24.7828 22.5347 36.1637 20.6945C43.6092 19.4792 41.5882 3.09029 38.8937 3.09029C36.1992 3.09029 35.1001 19.7222 41.1982 20.8333C51.8346 22.7778 51.551 11.25 48.6082 10.2431C45.4173 9.2014 41.8719 23.2986 51.1255 22.0139" stroke="black" stroke-width="2.83667" stroke-miterlimit="10" stroke-linecap="round"/>
  <path d="M28.7893 8.02084C29.5726 8.02084 30.2076 7.39901 30.2076 6.63195C30.2076 5.86489 29.5726 5.24306 28.7893 5.24306C28.006 5.24306 27.371 5.86489 27.371 6.63195C27.371 7.39901 28.006 8.02084 28.7893 8.02084Z" fill="black"/>
  <path d="M49.0338 8.02084C49.8172 8.02084 50.4522 7.39901 50.4522 6.63195C50.4522 5.86489 49.8172 5.24306 49.0338 5.24306C48.2505 5.24306 47.6155 5.86489 47.6155 6.63195C47.6155 7.39901 48.2505 8.02084 49.0338 8.02084Z" fill="black"/>
</svg>