<svg width="18" height="18" viewBox="0 0 18 18" fill="none" xmlns="http://www.w3.org/2000/svg">
<g id="1" clip-path="url(#clip0_113_1425)">
<g id="Clip path group">
<mask id="mask0_113_1425" style="mask-type:luminance" maskUnits="userSpaceOnUse" x="0" y="3" width="7" height="12">
<g id="7c4f4d2fea">
<path id="Vector" d="M0.566864 3.8999H6.456V14.0999H0.566864V3.8999Z" fill="white"/>
</g>
</mask>
<g mask="url(#mask0_113_1425)">
<g id="Group">
<g id="Clip path group_2">
<mask id="mask1_113_1425" style="mask-type:luminance" maskUnits="userSpaceOnUse" x="0" y="0" width="18" height="18">
<g id="71c43059f2">
<path id="Vector_2" d="M17.2222 7.4316H9.18847V10.7624H13.8128C13.3817 12.8784 11.579 14.0932 9.18847 14.0932C6.36688 14.0932 4.09391 11.8204 4.09391 8.999C4.09391 6.17764 6.36688 3.90486 9.18847 3.90486C10.4033 3.90486 11.5006 4.33592 12.3628 5.04125L14.8708 2.53339C13.3425 1.20106 11.3831 0.378174 9.18847 0.378174C4.40741 0.378174 0.566895 4.21836 0.566895 8.999C0.566895 13.7797 4.40741 17.6199 9.18847 17.6199C13.4992 17.6199 17.4181 14.485 17.4181 8.999C17.4181 8.48961 17.3398 7.94099 17.2222 7.4316Z" fill="white"/>
</g>
</mask>
<g mask="url(#mask1_113_1425)">
<g id="Group_2">
<path id="Vector_3" d="M-0.216858 14.0931V3.90479L6.44525 8.99893L-0.216858 14.0931Z" fill="#FBBC05"/>
</g>
</g>
</g>
</g>
</g>
</g>
<g id="Clip path group_3">
<mask id="mask2_113_1425" style="mask-type:luminance" maskUnits="userSpaceOnUse" x="0" y="0" width="18" height="9">
<g id="1e7bcd73ea">
<path id="Vector_4" d="M0.566864 0.37207H17.4181V9.00007H0.566864V0.37207Z" fill="white"/>
</g>
</mask>
<g mask="url(#mask2_113_1425)">
<g id="Group_3">
<g id="Clip path group_4">
<mask id="mask3_113_1425" style="mask-type:luminance" maskUnits="userSpaceOnUse" x="0" y="0" width="18" height="18">
<g id="106a7501b6">
<path id="Vector_5" d="M17.2222 7.43184H9.18847V10.7626H13.8128C13.3817 12.8787 11.579 14.0934 9.18847 14.0934C6.36688 14.0934 4.09391 11.8207 4.09391 8.99925C4.09391 6.17789 6.36688 3.90511 9.18847 3.90511C10.4033 3.90511 11.5006 4.33617 12.3628 5.0415L14.8708 2.53364C13.3425 1.20131 11.3831 0.378418 9.18847 0.378418C4.40741 0.378418 0.566895 4.21861 0.566895 8.99925C0.566895 13.7799 4.40741 17.6201 9.18847 17.6201C13.4992 17.6201 17.4181 14.4853 17.4181 8.99925C17.4181 8.48986 17.3398 7.94123 17.2222 7.43184Z" fill="white"/>
</g>
</mask>
<g mask="url(#mask3_113_1425)">
<g id="Group_4">
<path id="Vector_6" d="M-0.216858 3.90517L6.44525 8.99931L9.18847 6.60901L18.5938 5.08074V-0.405273H-0.216858V3.90517Z" fill="#EA4335"/>
</g>
</g>
</g>
</g>
</g>
</g>
<g id="Clip path group_5">
<mask id="mask4_113_1425" style="mask-type:luminance" maskUnits="userSpaceOnUse" x="0" y="0" width="18" height="18">
<g id="e20f06e835">
<path id="Vector_7" d="M0.566864 0.37207H17.4181V17.6201H0.566864V0.37207Z" fill="white"/>
</g>
</mask>
<g mask="url(#mask4_113_1425)">
<g id="Group_5">
<g id="Clip path group_6">
<mask id="mask5_113_1425" style="mask-type:luminance" maskUnits="userSpaceOnUse" x="0" y="0" width="18" height="18">
<g id="8ca6ea0984">
<path id="Vector_8" d="M17.2222 7.43184H9.18847V10.7626H13.8128C13.3817 12.8787 11.579 14.0934 9.18847 14.0934C6.36688 14.0934 4.09391 11.8207 4.09391 8.99925C4.09391 6.17789 6.36688 3.90511 9.18847 3.90511C10.4033 3.90511 11.5006 4.33617 12.3628 5.0415L14.8708 2.53364C13.3425 1.20131 11.3831 0.378418 9.18847 0.378418C4.40741 0.378418 0.566895 4.21861 0.566895 8.99925C0.566895 13.7799 4.40741 17.6201 9.18847 17.6201C13.4992 17.6201 17.4181 14.4853 17.4181 8.99925C17.4181 8.48986 17.3398 7.94123 17.2222 7.43184Z" fill="white"/>
</g>
</mask>
<g mask="url(#mask5_113_1425)">
<g id="Group_6">
<path id="Vector_9" d="M-0.216858 14.0935L11.5398 5.08074L14.6357 5.47262L18.5938 -0.405273V18.4039H-0.216858V14.0935Z" fill="#34A853"/>
</g>
</g>
</g>
</g>
</g>
</g>
<g id="Clip path group_7">
<mask id="mask6_113_1425" style="mask-type:luminance" maskUnits="userSpaceOnUse" x="4" y="3" width="14" height="15">
<g id="084cc3978a">
<path id="Vector_10" d="M4.87198 3.8999H17.4181V17.6199H4.87198V3.8999Z" fill="white"/>
</g>
</mask>
<g mask="url(#mask6_113_1425)">
<g id="Group_7">
<g id="Clip path group_8">
<mask id="mask7_113_1425" style="mask-type:luminance" maskUnits="userSpaceOnUse" x="0" y="0" width="18" height="18">
<g id="402fdc6fec">
<path id="Vector_11" d="M17.2222 7.4316H9.18844V10.7624H13.8128C13.3816 12.8784 11.579 14.0932 9.18844 14.0932C6.36685 14.0932 4.09388 11.8204 4.09388 8.999C4.09388 6.17764 6.36685 3.90486 9.18844 3.90486C10.4033 3.90486 11.5006 4.33592 12.3627 5.04125L14.8708 2.53339C13.3425 1.20106 11.383 0.378174 9.18844 0.378174C4.40738 0.378174 0.566864 4.21836 0.566864 8.999C0.566864 13.7797 4.40738 17.6199 9.18844 17.6199C13.4992 17.6199 17.4181 14.485 17.4181 8.999C17.4181 8.48961 17.3397 7.94099 17.2222 7.4316Z" fill="white"/>
</g>
</mask>
<g mask="url(#mask7_113_1425)">
<g id="Group_8">
<path id="Vector_12" d="M18.5938 18.4036L6.4452 8.99893L4.87766 7.8234L18.5938 3.90479V18.4036Z" fill="#4285F4"/>
</g>
</g>
</g>
</g>
</g>
</g>
</g>
<defs>
<clipPath id="clip0_113_1425">
<rect width="18" height="18" fill="white"/>
</clipPath>
</defs>
</svg>
